<svg xmlns="http://www.w3.org/2000/svg" viewBox="0 0 900 900" width="900" height="900" fill="none">
  <rect x="20" y="20" width="860" height="860" rx="48" fill="#f7acba" fill-opacity="0.10" stroke="#f7acba" stroke-width="4" stroke-dasharray="18 16"/>
  <g fill="#02956e">
    <path d="M300 330l16 33 36 5-26 25 6 36-32-17-32 17 6-36-26-25 36-5z"/>
    <path d="M450 330l16 33 36 5-26 25 6 36-32-17-32 17 6-36-26-25 36-5z"/>
    <path d="M600 330l16 33 36 5-26 25 6 36-32-17-32 17 6-36-26-25 36-5z"/>
  </g>
  <text x="450" y="560" text-anchor="middle" font-family="Helvetica, Arial, sans-serif" font-size="52" font-weight="800" fill="#ffffff">Slide 4</text>
  <text x="450" y="620" text-anchor="middle" font-family="Helvetica, Arial, sans-serif" font-size="30" font-weight="700" fill="#ffffff" fill-opacity="0.7">Parent testimonial</text>
  <text x="450" y="700" text-anchor="middle" font-family="Helvetica, Arial, sans-serif" font-size="24" fill="#ffffff" fill-opacity="0.45">ضع صورتك هنا · 900×900</text>
</svg>
